<svg id="Ebene_1" data-name="Ebene 1" xmlns="http://www.w3.org/2000/svg" viewBox="0 0 763.51 123.34"><defs><style>.cls-1{fill-rule:evenodd;}</style></defs><path class="cls-1" d="M537.49,23.14a2.5,2.5,0,0,0,2.48-2.5V2.47A2.5,2.5,0,0,0,537.49,0H475.81a2.49,2.49,0,0,0-2.49,2.47V20.65a2.52,2.52,0,0,0,2.49,2.5h16.24a2.48,2.48,0,0,1,2.5,2.48v95.2a2.5,2.5,0,0,0,2.49,2.5h19.24a2.48,2.48,0,0,0,2.48-2.48V25.65a2.48,2.48,0,0,1,2.5-2.48h0Z" transform="translate(0 0.01)"/><path class="cls-1" d="M403.22,123.29a2.5,2.5,0,0,0,2.48-2.5V2.51A2.52,2.52,0,0,0,403.2,0H385.12a2.52,2.52,0,0,0-2.49,2.54V55.12c0,1.36-.41,1.44-.91.16L359.81,2.36A4,4,0,0,0,356.41,0H339.25a2.5,2.5,0,0,0-2.44,2.51V120.82a2.48,2.48,0,0,0,2.48,2.48h18.09a2.48,2.48,0,0,0,2.5-2.48h0V65.12c0-1.38.38-1.45.85-.16l22.72,56a3.83,3.83,0,0,0,3.34,2.35Z" transform="translate(0 0.01)"/><path class="cls-1" d="M290,73.46c0-1.36.28-1.65,1.66-1.65h16.92a2.55,2.55,0,0,0,2.48-2.55V51.49A2.49,2.49,0,0,0,308.58,49H291.66c-1.38,0-1.66-.3-1.66-1.68V24.77c0-1.37.28-1.61,1.66-1.61h29.2A2.34,2.34,0,0,0,323.34,21V2.48A2.49,2.49,0,0,0,320.86,0H268.18a2.49,2.49,0,0,0-2.48,2.48V120.8a2.48,2.48,0,0,0,2.46,2.5h52.7a2.48,2.48,0,0,0,2.48-2.48v-18.3a2.49,2.49,0,0,0-2.48-2.49h-29.2c-1.38,0-1.66-.29-1.66-1.68Z" transform="translate(0 0.01)"/><path class="cls-1" d="M214.61,74.33c0-1.36.37-1.37.81-.09l18.26,46.7A3.7,3.7,0,0,0,237,123.3h19.79a1.64,1.64,0,0,0,1.81-1.47,1.66,1.66,0,0,0-.15-.88L235,61.38a7.6,7.6,0,0,1,0-4.67L256,2.32a1.6,1.6,0,0,0-.66-2.15,1.62,1.62,0,0,0-.94-.17H234.69a3.81,3.81,0,0,0-3.33,2.33L215.48,45.7c-.48,1.28-.87,1.23-.87-.15V2.48A2.49,2.49,0,0,0,212.12,0H194a2.49,2.49,0,0,0-2.48,2.48V120.8a2.48,2.48,0,0,0,2.46,2.5h18.19a2.48,2.48,0,0,0,2.49-2.49h0Z" transform="translate(0 0.01)"/><path class="cls-1" d="M708.57,74.33c0-1.36.38-1.37.81-.09l18.25,46.7a3.76,3.76,0,0,0,3.29,2.36h19.81a1.67,1.67,0,0,0,1.8-1.51,1.72,1.72,0,0,0-.15-.84L728.94,61.38a7.83,7.83,0,0,1,.07-4.67L750,2.32a1.59,1.59,0,0,0-.67-2.15,1.54,1.54,0,0,0-.92-.17H728.67a3.81,3.81,0,0,0-3.35,2.33L709.42,45.7c-.46,1.28-.85,1.23-.85-.15V2.48A2.49,2.49,0,0,0,706.09,0H687.91a2.49,2.49,0,0,0-2.48,2.48V120.8a2.48,2.48,0,0,0,2.46,2.5h18.2a2.48,2.48,0,0,0,2.48-2.48V74.33Z" transform="translate(0 0.01)"/><path class="cls-1" d="M99,2.48A2.49,2.49,0,0,0,96.49,0H78.33a2.48,2.48,0,0,0-2.52,2.44V120.8a2.48,2.48,0,0,0,2.46,2.5H96.45a2.5,2.5,0,0,0,2.48-2.5Z" transform="translate(0 0.01)"/><path class="cls-1" d="M454,52.39c-7.32-7.34-14.88-13.11-14.88-19.91,0-4.74,3.81-9.31,8.66-9.33h13.76a2.52,2.52,0,0,0,2.51-2.5V2.51A2.52,2.52,0,0,0,461.53,0h-17c-18.88,0-29.33,13.17-29.1,31.75.1,15.06,8.9,25.41,21.22,36.85,7,6.38,12.74,11.68,12.74,20.28,0,7.06-4.07,10.94-10.8,11.15H417.86a2.54,2.54,0,0,0-2.48,2.55v18.2a2.5,2.5,0,0,0,2.48,2.52h27.29c20.59.4,28.18-16.91,28.18-34.61,0-17.1-8.7-25.48-19.32-36.29" transform="translate(0 0.01)"/><path class="cls-1" d="M53.61,59.32a1.62,1.62,0,0,1-.69-1.12c0-.67.81-1.33.81-1.33a24.31,24.31,0,0,0,7-17.85V24.73C60.53,7.33,54.67,0,35.46,0H2.53A2.52,2.52,0,0,0,0,2.51H0V120.78a2.52,2.52,0,0,0,2.52,2.52H37.15c18,0,25-12.91,25-31V82.23c0-12-1.8-17.93-8.59-22.91M23.05,23.65c0-1.39.27-1.66,1.64-1.66H30.4c5.21,0,7.4,3.91,7.4,14,0,11.24-3,13-7.4,13H24.69c-1.37,0-1.64-.29-1.64-1.66Zm9,77.72H24.81c-1.4,0-1.7-.3-1.7-1.69V73.51c0-1.4.3-1.7,1.7-1.7h7.25c5.62,0,7.08,4.9,7.18,14.24.12,12.4-1.89,15.3-7.18,15.3" transform="translate(0 0.01)"/><path class="cls-1" d="M181.31,121,161.46,72.23h.26l1.87-.75c6.06-3.09,12.28-9.68,12.28-22.35V26.22C175.87,4.3,163,0,147.21,0H116.64a2.52,2.52,0,0,0-2.54,2.5h0V120.78a2.53,2.53,0,0,0,2.54,2.52h18.08a2.52,2.52,0,0,0,2.52-2.52h0V74.33c0-1.37.36-1.37.81-.09l18.53,46.7a3.71,3.71,0,0,0,3.29,2.36h19.79a1.65,1.65,0,0,0,1.8-1.48,1.63,1.63,0,0,0-.15-.87M153.37,36.17c.13,12.42-1.88,15.32-7.18,15.32H139c-1.4,0-1.71-.29-1.71-1.7V23.65c0-1.37.31-1.68,1.71-1.68h7.24c5.61,0,7.08,4.87,7.18,14.2" transform="translate(0 0.01)"/><path d="M665.54,123.3c-35.87,0-40.34-25.81-40.34-61.85S629.67,0,665.54,0h8.12a2.46,2.46,0,0,1,2.57,2.35v18.3a2.51,2.51,0,0,1-2.51,2.51h-8.19c-14.11,0-16.45,6.58-16.45,38.31,0,31.9,2.34,38.55,16.45,38.55h8.18a2.54,2.54,0,0,1,2.52,2.53v18.24a2.52,2.52,0,0,1-2.52,2.52h-8.17Z" transform="translate(0 0.01)"/><path d="M579.06,0c35.87,0,38.32,25.37,38.32,61.41s-2.45,61.89-38.32,61.89-38.32-25.87-38.32-61.89S543.18,0,579.06,0m0,100.17c14.12,0,14.4-6.89,14.4-38.76s-.28-39.54-14.4-39.54-14.41,7.78-14.41,39.54.29,38.76,14.41,38.76" transform="translate(0 0.01)"/><path d="M740.59,59.79a11.46,11.46,0,1,1,11.46,11.52,11.27,11.27,0,0,1-11.46-11.08Zm20.88,0a9.42,9.42,0,1,0-9.42,9.54,9.19,9.19,0,0,0,9.42-8.95,5.81,5.81,0,0,0,0-.59ZM748,66.09a.38.38,0,0,1-.42-.34v-12a.38.38,0,0,1,.34-.42h4.86c2.76,0,4.38,1.38,4.38,3.78a3.57,3.57,0,0,1-2.52,3.54l2.58,5c.12.24,0,.42-.24.42h-1.68a.55.55,0,0,1-.52-.46L752.41,61h-2.28c-.18,0-.24.06-.24.24v4.44a.38.38,0,0,1-.34.42h-.08Zm6.9-8.94c0-1.14-.66-1.74-2.1-1.74h-2.7c-.18,0-.24.06-.24.24v3.06a.22.22,0,0,0,.2.24h2.72c1.46,0,2.12-.66,2.12-1.8Z" transform="translate(0 0.01)"/></svg>